<?xml version="1.0" encoding="UTF-8" standalone="no"?>
<!DOCTYPE svg PUBLIC "-//W3C//DTD SVG 1.1//EN"
 "http://www.w3.org/Graphics/SVG/1.1/DTD/svg11.dtd">
<!-- Generated by graphviz version 2.40.1 (20161225.0304)
 -->
<!-- Title: controllers_diagram Pages: 1 -->
<svg width="613pt" height="596pt"
 viewBox="0.00 0.00 613.00 596.00" xmlns="http://www.w3.org/2000/svg" xmlns:xlink="http://www.w3.org/1999/xlink">
<g id="graph0" class="graph" transform="scale(1 1) rotate(0) translate(4 592)">
<title>controllers_diagram</title>
<polygon fill="transparent" stroke="transparent" points="-4,4 -4,-592 609,-592 609,4 -4,4"/>
<!-- _diagram_info -->
<g id="node1" class="node">
<title>_diagram_info</title>
<text text-anchor="start" x="399" y="-471.6" font-family="Times,serif" font-size="13.00" fill="#000000">Controllers diagram</text>
<text text-anchor="start" x="399" y="-457.6" font-family="Times,serif" font-size="13.00" fill="#000000">Date: Dec 03 2019 &#45; 13:22</text>
<text text-anchor="start" x="399" y="-443.6" font-family="Times,serif" font-size="13.00" fill="#000000">Migration version: 20191203070318</text>
<text text-anchor="start" x="399" y="-429.6" font-family="Times,serif" font-size="13.00" fill="#000000">Generated by RailRoady 1.5.3</text>
<text text-anchor="start" x="399" y="-415.6" font-family="Times,serif" font-size="13.00" fill="#000000">http://railroady.prestonlee.com</text>
</g>
<!-- RegistrationsController -->
<g id="node2" class="node">
<title>RegistrationsController</title>
<path fill="none" stroke="#000000" d="M318,-.5C318,-.5 442,-.5 442,-.5 448,-.5 454,-6.5 454,-12.5 454,-12.5 454,-112.5 454,-112.5 454,-118.5 448,-124.5 442,-124.5 442,-124.5 318,-124.5 318,-124.5 312,-124.5 306,-118.5 306,-112.5 306,-112.5 306,-12.5 306,-12.5 306,-6.5 312,-.5 318,-.5"/>
<text text-anchor="middle" x="380" y="-109.3" font-family="Times,serif" font-size="14.00" fill="#000000">RegistrationsController</text>
<polyline fill="none" stroke="#000000" points="306,-101.5 454,-101.5 "/>
<polyline fill="none" stroke="#000000" points="306,-77.5 454,-77.5 "/>
<polyline fill="none" stroke="#000000" points="306,-53.5 454,-53.5 "/>
<text text-anchor="start" x="314" y="-38.3" font-family="Times,serif" font-size="14.00" fill="#000000">_layout</text>
<text text-anchor="start" x="314" y="-23.3" font-family="Times,serif" font-size="14.00" fill="#000000">account_update_params</text>
<text text-anchor="start" x="314" y="-8.3" font-family="Times,serif" font-size="14.00" fill="#000000">sing_up_params</text>
</g>
<!-- ApplicationController -->
<g id="node3" class="node">
<title>ApplicationController</title>
<path fill="none" stroke="#000000" d="M12,-459.5C12,-459.5 124,-459.5 124,-459.5 130,-459.5 136,-465.5 136,-471.5 136,-471.5 136,-541.5 136,-541.5 136,-547.5 130,-553.5 124,-553.5 124,-553.5 12,-553.5 12,-553.5 6,-553.5 0,-547.5 0,-541.5 0,-541.5 0,-471.5 0,-471.5 0,-465.5 6,-459.5 12,-459.5"/>
<text text-anchor="middle" x="68" y="-538.3" font-family="Times,serif" font-size="14.00" fill="#000000">ApplicationController</text>
<polyline fill="none" stroke="#000000" points="0,-530.5 136,-530.5 "/>
<polyline fill="none" stroke="#000000" points="0,-506.5 136,-506.5 "/>
<polyline fill="none" stroke="#000000" points="0,-482.5 136,-482.5 "/>
<text text-anchor="start" x="8" y="-467.3" font-family="Times,serif" font-size="14.00" fill="#000000">_layout</text>
</g>
<!-- ComentariosController -->
<g id="node4" class="node">
<title>ComentariosController</title>
<path fill="none" stroke="#000000" d="M148,-119.5C148,-119.5 266,-119.5 266,-119.5 272,-119.5 278,-125.5 278,-131.5 278,-131.5 278,-320.5 278,-320.5 278,-326.5 272,-332.5 266,-332.5 266,-332.5 148,-332.5 148,-332.5 142,-332.5 136,-326.5 136,-320.5 136,-320.5 136,-131.5 136,-131.5 136,-125.5 142,-119.5 148,-119.5"/>
<text text-anchor="middle" x="207" y="-317.3" font-family="Times,serif" font-size="14.00" fill="#000000">ComentariosController</text>
<polyline fill="none" stroke="#000000" points="136,-309.5 278,-309.5 "/>
<text text-anchor="start" x="144" y="-294.3" font-family="Times,serif" font-size="14.00" fill="#000000">create</text>
<text text-anchor="start" x="144" y="-279.3" font-family="Times,serif" font-size="14.00" fill="#000000">destroy</text>
<text text-anchor="start" x="144" y="-264.3" font-family="Times,serif" font-size="14.00" fill="#000000">edit</text>
<text text-anchor="start" x="144" y="-249.3" font-family="Times,serif" font-size="14.00" fill="#000000">new</text>
<text text-anchor="start" x="144" y="-234.3" font-family="Times,serif" font-size="14.00" fill="#000000">show</text>
<text text-anchor="start" x="144" y="-219.3" font-family="Times,serif" font-size="14.00" fill="#000000">update</text>
<polyline fill="none" stroke="#000000" points="136,-211.5 278,-211.5 "/>
<polyline fill="none" stroke="#000000" points="136,-187.5 278,-187.5 "/>
<text text-anchor="start" x="144" y="-172.3" font-family="Times,serif" font-size="14.00" fill="#000000">_layout</text>
<text text-anchor="start" x="144" y="-157.3" font-family="Times,serif" font-size="14.00" fill="#000000">comentario_params</text>
<text text-anchor="start" x="144" y="-142.3" font-family="Times,serif" font-size="14.00" fill="#000000">set_comentario</text>
<text text-anchor="start" x="144" y="-127.3" font-family="Times,serif" font-size="14.00" fill="#000000">set_topico</text>
</g>
<!-- TopicosController -->
<g id="node5" class="node">
<title>TopicosController</title>
<path fill="none" stroke="#000000" d="M318,-153.5C318,-153.5 410,-153.5 410,-153.5 416,-153.5 422,-159.5 422,-165.5 422,-165.5 422,-369.5 422,-369.5 422,-375.5 416,-381.5 410,-381.5 410,-381.5 318,-381.5 318,-381.5 312,-381.5 306,-375.5 306,-369.5 306,-369.5 306,-165.5 306,-165.5 306,-159.5 312,-153.5 318,-153.5"/>
<text text-anchor="middle" x="364" y="-366.3" font-family="Times,serif" font-size="14.00" fill="#000000">TopicosController</text>
<polyline fill="none" stroke="#000000" points="306,-358.5 422,-358.5 "/>
<text text-anchor="start" x="314" y="-343.3" font-family="Times,serif" font-size="14.00" fill="#000000">create</text>
<text text-anchor="start" x="314" y="-328.3" font-family="Times,serif" font-size="14.00" fill="#000000">destroy</text>
<text text-anchor="start" x="314" y="-313.3" font-family="Times,serif" font-size="14.00" fill="#000000">edit</text>
<text text-anchor="start" x="314" y="-298.3" font-family="Times,serif" font-size="14.00" fill="#000000">index</text>
<text text-anchor="start" x="314" y="-283.3" font-family="Times,serif" font-size="14.00" fill="#000000">new</text>
<text text-anchor="start" x="314" y="-268.3" font-family="Times,serif" font-size="14.00" fill="#000000">show</text>
<text text-anchor="start" x="314" y="-253.3" font-family="Times,serif" font-size="14.00" fill="#000000">update</text>
<polyline fill="none" stroke="#000000" points="306,-245.5 422,-245.5 "/>
<polyline fill="none" stroke="#000000" points="306,-221.5 422,-221.5 "/>
<text text-anchor="start" x="314" y="-206.3" font-family="Times,serif" font-size="14.00" fill="#000000">_layout</text>
<text text-anchor="start" x="314" y="-191.3" font-family="Times,serif" font-size="14.00" fill="#000000">find_areas</text>
<text text-anchor="start" x="314" y="-176.3" font-family="Times,serif" font-size="14.00" fill="#000000">set_topico</text>
<text text-anchor="start" x="314" y="-161.3" font-family="Times,serif" font-size="14.00" fill="#000000">topico_params</text>
</g>
<!-- AreasController -->
<g id="node6" class="node">
<title>AreasController</title>
<path fill="none" stroke="#000000" d="M182,-374.5C182,-374.5 262,-374.5 262,-374.5 268,-374.5 274,-380.5 274,-386.5 274,-386.5 274,-575.5 274,-575.5 274,-581.5 268,-587.5 262,-587.5 262,-587.5 182,-587.5 182,-587.5 176,-587.5 170,-581.5 170,-575.5 170,-575.5 170,-386.5 170,-386.5 170,-380.5 176,-374.5 182,-374.5"/>
<text text-anchor="middle" x="222" y="-572.3" font-family="Times,serif" font-size="14.00" fill="#000000">AreasController</text>
<polyline fill="none" stroke="#000000" points="170,-564.5 274,-564.5 "/>
<text text-anchor="start" x="178" y="-549.3" font-family="Times,serif" font-size="14.00" fill="#000000">create</text>
<text text-anchor="start" x="178" y="-534.3" font-family="Times,serif" font-size="14.00" fill="#000000">destroy</text>
<text text-anchor="start" x="178" y="-519.3" font-family="Times,serif" font-size="14.00" fill="#000000">edit</text>
<text text-anchor="start" x="178" y="-504.3" font-family="Times,serif" font-size="14.00" fill="#000000">index</text>
<text text-anchor="start" x="178" y="-489.3" font-family="Times,serif" font-size="14.00" fill="#000000">new</text>
<text text-anchor="start" x="178" y="-474.3" font-family="Times,serif" font-size="14.00" fill="#000000">show</text>
<text text-anchor="start" x="178" y="-459.3" font-family="Times,serif" font-size="14.00" fill="#000000">update</text>
<polyline fill="none" stroke="#000000" points="170,-451.5 274,-451.5 "/>
<polyline fill="none" stroke="#000000" points="170,-427.5 274,-427.5 "/>
<text text-anchor="start" x="178" y="-412.3" font-family="Times,serif" font-size="14.00" fill="#000000">_layout</text>
<text text-anchor="start" x="178" y="-397.3" font-family="Times,serif" font-size="14.00" fill="#000000">area_params</text>
<text text-anchor="start" x="178" y="-382.3" font-family="Times,serif" font-size="14.00" fill="#000000">set_area</text>
</g>
<!-- HomeController -->
<g id="node7" class="node">
<title>HomeController</title>
<path fill="none" stroke="#000000" d="M12,-340.5C12,-340.5 94,-340.5 94,-340.5 100,-340.5 106,-346.5 106,-352.5 106,-352.5 106,-421.5 106,-421.5 106,-427.5 100,-433.5 94,-433.5 94,-433.5 12,-433.5 12,-433.5 6,-433.5 0,-427.5 0,-421.5 0,-421.5 0,-352.5 0,-352.5 0,-346.5 6,-340.5 12,-340.5"/>
<text text-anchor="middle" x="53" y="-418.3" font-family="Times,serif" font-size="14.00" fill="#000000">HomeController</text>
<polyline fill="none" stroke="#000000" points="0,-410.5 106,-410.5 "/>
<text text-anchor="start" x="8" y="-395.3" font-family="Times,serif" font-size="14.00" fill="#000000">index</text>
<polyline fill="none" stroke="#000000" points="0,-387.5 106,-387.5 "/>
<polyline fill="none" stroke="#000000" points="0,-363.5 106,-363.5 "/>
<text text-anchor="start" x="8" y="-348.3" font-family="Times,serif" font-size="14.00" fill="#000000">_layout</text>
</g>
</g>
</svg>
