<?xml version="1.0" encoding="UTF-8" standalone="no"?>
<!DOCTYPE svg PUBLIC "-//W3C//DTD SVG 1.1//EN"
 "http://www.w3.org/Graphics/SVG/1.1/DTD/svg11.dtd">
<!-- Generated by graphviz version 2.40.1 (20161225.0304)
 -->
<!-- Title: models_diagram Pages: 1 -->
<svg width="686pt" height="694pt"
 viewBox="0.00 0.00 686.34 694.00" xmlns="http://www.w3.org/2000/svg" xmlns:xlink="http://www.w3.org/1999/xlink">
<g id="graph0" class="graph" transform="scale(1 1) rotate(0) translate(4 690)">
<title>models_diagram</title>
<polygon fill="transparent" stroke="transparent" points="-4,4 -4,-690 682.3431,-690 682.3431,4 -4,4"/>
<!-- _diagram_info -->
<g id="node1" class="node">
<title>_diagram_info</title>
<text text-anchor="start" x="8" y="-627.1" font-family="Times,serif" font-size="13.00" fill="#000000">Models diagram</text>
<text text-anchor="start" x="8" y="-613.1" font-family="Times,serif" font-size="13.00" fill="#000000">Date: Dec 03 2019 &#45; 13:22</text>
<text text-anchor="start" x="8" y="-599.1" font-family="Times,serif" font-size="13.00" fill="#000000">Migration version: 20191203070318</text>
<text text-anchor="start" x="8" y="-585.1" font-family="Times,serif" font-size="13.00" fill="#000000">Generated by RailRoady 1.5.3</text>
<text text-anchor="start" x="8" y="-571.1" font-family="Times,serif" font-size="13.00" fill="#000000">http://railroady.prestonlee.com</text>
</g>
<!-- User -->
<g id="node2" class="node">
<title>User</title>
<path fill="none" stroke="#000000" d="M244,-519.5C244,-519.5 420,-519.5 420,-519.5 426,-519.5 432,-525.5 432,-531.5 432,-531.5 432,-673.5 432,-673.5 432,-679.5 426,-685.5 420,-685.5 420,-685.5 244,-685.5 244,-685.5 238,-685.5 232,-679.5 232,-673.5 232,-673.5 232,-531.5 232,-531.5 232,-525.5 238,-519.5 244,-519.5"/>
<text text-anchor="middle" x="332" y="-670.3" font-family="Times,serif" font-size="14.00" fill="#000000">User</text>
<polyline fill="none" stroke="#000000" points="232,-662.5 432,-662.5 "/>
<text text-anchor="start" x="240" y="-647.3" font-family="Times,serif" font-size="14.00" fill="#000000">id :integer</text>
<text text-anchor="start" x="240" y="-632.3" font-family="Times,serif" font-size="14.00" fill="#000000">email :varchar</text>
<text text-anchor="start" x="240" y="-617.3" font-family="Times,serif" font-size="14.00" fill="#000000">encrypted_password :varchar</text>
<text text-anchor="start" x="240" y="-602.3" font-family="Times,serif" font-size="14.00" fill="#000000">reset_password_token :varchar</text>
<text text-anchor="start" x="240" y="-587.3" font-family="Times,serif" font-size="14.00" fill="#000000">reset_password_sent_at :datetime</text>
<text text-anchor="start" x="240" y="-572.3" font-family="Times,serif" font-size="14.00" fill="#000000">remember_created_at :datetime</text>
<text text-anchor="start" x="240" y="-557.3" font-family="Times,serif" font-size="14.00" fill="#000000">created_at :datetime</text>
<text text-anchor="start" x="240" y="-542.3" font-family="Times,serif" font-size="14.00" fill="#000000">updated_at :datetime</text>
<text text-anchor="start" x="240" y="-527.3" font-family="Times,serif" font-size="14.00" fill="#000000">username :varchar</text>
</g>
<!-- Role -->
<g id="node5" class="node">
<title>Role</title>
<path fill="none" stroke="#000000" d="M199,-8C199,-8 315,-8 315,-8 321,-8 327,-14 327,-20 327,-20 327,-117 327,-117 327,-123 321,-129 315,-129 315,-129 199,-129 199,-129 193,-129 187,-123 187,-117 187,-117 187,-20 187,-20 187,-14 193,-8 199,-8"/>
<text text-anchor="middle" x="257" y="-113.8" font-family="Times,serif" font-size="14.00" fill="#000000">Role</text>
<polyline fill="none" stroke="#000000" points="187,-106 327,-106 "/>
<text text-anchor="start" x="195" y="-90.8" font-family="Times,serif" font-size="14.00" fill="#000000">id :integer</text>
<text text-anchor="start" x="195" y="-75.8" font-family="Times,serif" font-size="14.00" fill="#000000">name :varchar</text>
<text text-anchor="start" x="195" y="-60.8" font-family="Times,serif" font-size="14.00" fill="#000000">resource_type :varchar</text>
<text text-anchor="start" x="195" y="-45.8" font-family="Times,serif" font-size="14.00" fill="#000000">resource_id :integer</text>
<text text-anchor="start" x="195" y="-30.8" font-family="Times,serif" font-size="14.00" fill="#000000">created_at :datetime</text>
<text text-anchor="start" x="195" y="-15.8" font-family="Times,serif" font-size="14.00" fill="#000000">updated_at :datetime</text>
</g>
<!-- User&#45;&gt;Role -->
<g id="edge1" class="edge">
<title>User&#45;&gt;Role</title>
<path fill="none" stroke="#061a5b" d="M267.3756,-510.2393C263.2134,-501.32 259.6398,-492.1718 257,-483 223.3859,-366.2085 234.1227,-223.1177 245.3225,-139.2563"/>
<polygon fill="#061a5b" stroke="#061a5b" points="267.4907,-510.4729 267.8752,-521.4321 269.7011,-514.9578 271.9116,-519.4427 271.9116,-519.4427 271.9116,-519.4427 269.7011,-514.9578 275.948,-517.4533 267.4907,-510.4729 267.4907,-510.4729"/>
<polygon fill="#061a5b" stroke="#061a5b" points="245.3253,-139.2354 251.1457,-129.9417 246.0065,-134.282 246.6877,-129.3287 246.6877,-129.3287 246.6877,-129.3287 246.0065,-134.282 242.2296,-128.7156 245.3253,-139.2354 245.3253,-139.2354"/>
</g>
<!-- Topico -->
<g id="node6" class="node">
<title>Topico</title>
<path fill="none" stroke="#000000" d="M346.5,-173.5C346.5,-173.5 453.5,-173.5 453.5,-173.5 459.5,-173.5 465.5,-179.5 465.5,-185.5 465.5,-185.5 465.5,-312.5 465.5,-312.5 465.5,-318.5 459.5,-324.5 453.5,-324.5 453.5,-324.5 346.5,-324.5 346.5,-324.5 340.5,-324.5 334.5,-318.5 334.5,-312.5 334.5,-312.5 334.5,-185.5 334.5,-185.5 334.5,-179.5 340.5,-173.5 346.5,-173.5"/>
<text text-anchor="middle" x="400" y="-309.3" font-family="Times,serif" font-size="14.00" fill="#000000">Topico</text>
<polyline fill="none" stroke="#000000" points="334.5,-301.5 465.5,-301.5 "/>
<text text-anchor="start" x="342.5" y="-286.3" font-family="Times,serif" font-size="14.00" fill="#000000">id :integer</text>
<text text-anchor="start" x="342.5" y="-271.3" font-family="Times,serif" font-size="14.00" fill="#000000">title :varchar</text>
<text text-anchor="start" x="342.5" y="-256.3" font-family="Times,serif" font-size="14.00" fill="#000000">content :text</text>
<text text-anchor="start" x="342.5" y="-241.3" font-family="Times,serif" font-size="14.00" fill="#000000">created_at :datetime</text>
<text text-anchor="start" x="342.5" y="-226.3" font-family="Times,serif" font-size="14.00" fill="#000000">updated_at :datetime</text>
<text text-anchor="start" x="342.5" y="-211.3" font-family="Times,serif" font-size="14.00" fill="#000000">user_id :integer</text>
<text text-anchor="start" x="342.5" y="-196.3" font-family="Times,serif" font-size="14.00" fill="#000000">area_id :integer</text>
<text text-anchor="start" x="342.5" y="-181.3" font-family="Times,serif" font-size="14.00" fill="#000000">slug :varchar</text>
</g>
<!-- User&#45;&gt;Topico -->
<g id="edge2" class="edge">
<title>User&#45;&gt;Topico</title>
<path fill="none" stroke="#046fa6" d="M395.6949,-512.2071C400.2548,-502.668 404.1657,-492.8476 407,-483 420.7429,-435.2505 419.7635,-379.7413 414.9889,-334.7735"/>
<ellipse fill="none" stroke="#046fa6" cx="393.8728" cy="-515.8627" rx="4" ry="4"/>
<polygon fill="#046fa6" stroke="#046fa6" points="414.98,-334.695 418.3161,-324.2489 414.4126,-329.7273 413.8452,-324.7595 413.8452,-324.7595 413.8452,-324.7595 414.4126,-329.7273 409.3743,-325.2702 414.98,-334.695 414.98,-334.695"/>
</g>
<!-- Area -->
<g id="node7" class="node">
<title>Area</title>
<path fill="none" stroke="#000000" d="M278.5,-361.5C278.5,-361.5 385.5,-361.5 385.5,-361.5 391.5,-361.5 397.5,-367.5 397.5,-373.5 397.5,-373.5 397.5,-470.5 397.5,-470.5 397.5,-476.5 391.5,-482.5 385.5,-482.5 385.5,-482.5 278.5,-482.5 278.5,-482.5 272.5,-482.5 266.5,-476.5 266.5,-470.5 266.5,-470.5 266.5,-373.5 266.5,-373.5 266.5,-367.5 272.5,-361.5 278.5,-361.5"/>
<text text-anchor="middle" x="332" y="-467.3" font-family="Times,serif" font-size="14.00" fill="#000000">Area</text>
<polyline fill="none" stroke="#000000" points="266.5,-459.5 397.5,-459.5 "/>
<text text-anchor="start" x="274.5" y="-444.3" font-family="Times,serif" font-size="14.00" fill="#000000">id :integer</text>
<text text-anchor="start" x="274.5" y="-429.3" font-family="Times,serif" font-size="14.00" fill="#000000">area :varchar</text>
<text text-anchor="start" x="274.5" y="-414.3" font-family="Times,serif" font-size="14.00" fill="#000000">created_at :datetime</text>
<text text-anchor="start" x="274.5" y="-399.3" font-family="Times,serif" font-size="14.00" fill="#000000">updated_at :datetime</text>
<text text-anchor="start" x="274.5" y="-384.3" font-family="Times,serif" font-size="14.00" fill="#000000">topico_id :integer</text>
<text text-anchor="start" x="274.5" y="-369.3" font-family="Times,serif" font-size="14.00" fill="#000000">slug :varchar</text>
</g>
<!-- User&#45;&gt;Area -->
<g id="edge3" class="edge">
<title>User&#45;&gt;Area</title>
<path fill="none" stroke="#19bde2" d="M332,-509.1906C332,-503.6888 332,-498.2021 332,-492.8126"/>
<polygon fill="#19bde2" stroke="#19bde2" points="332.0001,-509.3823 327.5,-519.3823 332,-514.3823 332,-519.3823 332,-519.3823 332,-519.3823 332,-514.3823 336.5,-519.3823 332.0001,-509.3823 332.0001,-509.3823"/>
<polygon fill="#19bde2" stroke="#19bde2" points="332.0001,-492.5893 336.5,-482.5893 332,-487.5893 332,-482.5893 332,-482.5893 332,-482.5893 332,-487.5893 327.5,-482.5894 332.0001,-492.5893 332.0001,-492.5893"/>
</g>
<!-- Ability -->
<g id="node3" class="node">
<title>Ability</title>
<polygon fill="none" stroke="#000000" points="450.5,-579.5 450.5,-625.5 505.5,-625.5 505.5,-579.5 450.5,-579.5"/>
<text text-anchor="middle" x="478" y="-610.3" font-family="Times,serif" font-size="14.00" fill="#000000">Ability</text>
<polyline fill="none" stroke="#000000" points="450.5,-602.5 505.5,-602.5 "/>
<text text-anchor="middle" x="478" y="-587.3" font-family="Times,serif" font-size="14.00" fill="#000000"> </text>
</g>
<!-- Comentario -->
<g id="node4" class="node">
<title>Comentario</title>
<path fill="none" stroke="#000000" d="M357.5,-.5C357.5,-.5 464.5,-.5 464.5,-.5 470.5,-.5 476.5,-6.5 476.5,-12.5 476.5,-12.5 476.5,-124.5 476.5,-124.5 476.5,-130.5 470.5,-136.5 464.5,-136.5 464.5,-136.5 357.5,-136.5 357.5,-136.5 351.5,-136.5 345.5,-130.5 345.5,-124.5 345.5,-124.5 345.5,-12.5 345.5,-12.5 345.5,-6.5 351.5,-.5 357.5,-.5"/>
<text text-anchor="middle" x="411" y="-121.3" font-family="Times,serif" font-size="14.00" fill="#000000">Comentario</text>
<polyline fill="none" stroke="#000000" points="345.5,-113.5 476.5,-113.5 "/>
<text text-anchor="start" x="353.5" y="-98.3" font-family="Times,serif" font-size="14.00" fill="#000000">id :integer</text>
<text text-anchor="start" x="353.5" y="-83.3" font-family="Times,serif" font-size="14.00" fill="#000000">comentario :text</text>
<text text-anchor="start" x="353.5" y="-68.3" font-family="Times,serif" font-size="14.00" fill="#000000">created_at :datetime</text>
<text text-anchor="start" x="353.5" y="-53.3" font-family="Times,serif" font-size="14.00" fill="#000000">updated_at :datetime</text>
<text text-anchor="start" x="353.5" y="-38.3" font-family="Times,serif" font-size="14.00" fill="#000000">topico_id :integer</text>
<text text-anchor="start" x="353.5" y="-23.3" font-family="Times,serif" font-size="14.00" fill="#000000">user_id :integer</text>
<text text-anchor="start" x="353.5" y="-8.3" font-family="Times,serif" font-size="14.00" fill="#000000">slug :varchar</text>
</g>
<!-- Topico&#45;&gt;Comentario -->
<g id="edge4" class="edge">
<title>Topico&#45;&gt;Comentario</title>
<path fill="none" stroke="#ce535e" d="M405.0946,-165.4024C405.4724,-159.2027 405.8528,-152.9609 406.2286,-146.7948"/>
<ellipse fill="none" stroke="#ce535e" cx="404.8446" cy="-169.505" rx="4" ry="4"/>
<polygon fill="#ce535e" stroke="#ce535e" points="406.247,-146.4917 411.347,-136.784 406.5511,-141.501 406.8553,-136.5102 406.8553,-136.5102 406.8553,-136.5102 406.5511,-141.501 402.3637,-136.2365 406.247,-146.4917 406.247,-146.4917"/>
</g>
<!-- Topico&#45;&gt;Role -->
<g id="edge5" class="edge">
<title>Topico&#45;&gt;Role</title>
<path fill="none" stroke="#d33144" d="M334.945,-166.8852C327.0889,-156.9689 319.1282,-146.9205 311.4464,-137.2242"/>
<ellipse fill="none" stroke="#d33144" cx="337.6998" cy="-170.3623" rx="4" ry="4"/>
<polygon fill="#d33144" stroke="#d33144" points="311.2775,-137.0111 308.5949,-126.3783 308.1726,-133.0919 305.0676,-129.1728 305.0676,-129.1728 305.0676,-129.1728 308.1726,-133.0919 301.5404,-131.9672 311.2775,-137.0111 311.2775,-137.0111"/>
</g>
<!-- Area&#45;&gt;Role -->
<g id="edge7" class="edge">
<title>Area&#45;&gt;Role</title>
<path fill="none" stroke="#ba656e" d="M317.3726,-353.0562C304.2883,-291.3855 285.1929,-201.3825 271.9969,-139.1856"/>
<ellipse fill="none" stroke="#ba656e" cx="318.2768" cy="-357.3183" rx="4" ry="4"/>
<polygon fill="#ba656e" stroke="#ba656e" points="271.9255,-138.8486 274.252,-128.1323 270.8878,-133.9574 269.85,-129.0663 269.85,-129.0663 269.85,-129.0663 270.8878,-133.9574 265.448,-130.0003 271.9255,-138.8486 271.9255,-138.8486"/>
</g>
<!-- Area&#45;&gt;Topico -->
<g id="edge6" class="edge">
<title>Area&#45;&gt;Topico</title>
<path fill="none" stroke="#ea903e" d="M358.774,-353.8837C361.3052,-347.4441 363.8924,-340.862 366.4759,-334.2892"/>
<ellipse fill="none" stroke="#ea903e" cx="357.2464" cy="-357.7702" rx="4" ry="4"/>
<polygon fill="#ea903e" stroke="#ea903e" points="366.5932,-333.9906 374.4396,-326.3299 368.4224,-329.3371 370.2515,-324.6837 370.2515,-324.6837 370.2515,-324.6837 368.4224,-329.3371 366.0634,-323.0375 366.5932,-333.9906 366.5932,-333.9906"/>
</g>
<!-- ApplicationRecord -->
<g id="node8" class="node">
<title>ApplicationRecord</title>
<ellipse fill="none" stroke="#000000" cx="601" cy="-602.5" rx="77.1866" ry="18"/>
<text text-anchor="middle" x="601" y="-598.8" font-family="Times,serif" font-size="14.00" fill="#000000">ApplicationRecord</text>
</g>
</g>
</svg>
